<?xml version="1.0" encoding="utf-8"?>
<!-- Generator: Adobe Illustrator 16.0.3, SVG Export Plug-In . SVG Version: 6.00 Build 0)  -->
<!DOCTYPE svg PUBLIC "-//W3C//DTD SVG 1.1//EN" "http://www.w3.org/Graphics/SVG/1.1/DTD/svg11.dtd">
<svg version="1.1" id="Calque_1" xmlns="http://www.w3.org/2000/svg" xmlns:xlink="http://www.w3.org/1999/xlink" x="0px" y="0px"
	 width="762.248px" height="231.757px" viewBox="0 0 762.248 231.757" enable-background="new 0 0 762.248 231.757"
	 xml:space="preserve">
<g id="Logo_1_">
	<g id="Picto">
		<g>
			<path fill="#003E52" d="M183.737,62.538v169.146l103.727-62.54V0L183.737,62.538z"/>
		</g>
		<g>
			<path fill="#9EE9C5" d="M3.427,62.842l171.229,167.489V65.537L107.656,0L3.427,62.842z"/>
		</g>
		<g>
			<path fill="#003E52" d="M0,73.074v158.684l100.299-60.482L0,73.074z"/>
		</g>
	</g>
	<g id="Typo">
		<g>
			<path fill="#003E52" d="M387.123,70.505c-2.239-2.382-4.865-4.222-7.809-5.47c-2.941-1.222-6.074-1.842-9.313-1.842
				c-3.229,0-6.366,0.62-9.329,1.844c-2.944,1.258-5.567,3.098-7.795,5.468c-2.22,2.367-4.027,5.308-5.373,8.744
				c-1.339,3.46-2.018,7.416-2.018,11.757v27.863h10.07V91.006c0-2.915,0.354-5.616,1.051-8.027c0.69-2.379,1.688-4.461,2.966-6.187
				c1.296-1.749,2.792-3.044,4.574-3.96c1.789-0.924,3.704-1.374,5.854-1.374c2.153,0,4.07,0.449,5.858,1.373
				c1.78,0.923,3.317,2.254,4.571,3.962c1.272,1.703,2.245,3.728,2.973,6.181c0.691,2.448,1.042,5.149,1.042,8.03v27.863h10.059
				V91.006c0-4.396-0.678-8.353-2.013-11.758C391.166,75.838,389.36,72.896,387.123,70.505z"/>
			<path fill="#003E52" d="M760.229,79.249c-1.312-3.381-3.118-6.322-5.372-8.745c-2.249-2.386-4.875-4.225-7.812-5.469
				c-5.938-2.453-12.755-2.437-18.635,0.001c-2.933,1.243-5.56,3.083-7.81,5.47c-0.827,0.889-1.616,1.886-2.351,2.97
				c-0.735-1.085-1.524-2.082-2.353-2.971c-2.223-2.372-4.848-4.211-7.807-5.47c-2.999-1.239-6.046-1.842-9.313-1.842
				c-3.242,0-6.378,0.62-9.322,1.843c-2.938,1.248-5.559,3.087-7.79,5.468c-2.254,2.392-4.071,5.334-5.4,8.744
				c-1.324,3.405-1.996,7.361-1.996,11.758v27.863h10.064V91.006c0-2.898,0.349-5.6,1.035-8.027
				c0.681-2.347,1.681-4.429,2.971-6.186c1.299-1.748,2.799-3.043,4.587-3.961c1.783-0.924,3.697-1.373,5.852-1.373
				c2.118,0,4.09,0.462,5.858,1.373c1.769,0.917,3.302,2.249,4.56,3.962c1.273,1.706,2.275,3.787,2.976,6.183
				c0.679,2.368,1.023,5.069,1.023,8.028v27.363l0.028,0.5h10.081V91.006c0-2.96,0.35-5.66,1.041-8.03
				c0.665-2.349,1.66-4.43,2.961-6.185c1.248-1.701,2.787-3.033,4.572-3.959c1.784-0.924,3.701-1.373,5.859-1.373
				c2.116,0,4.083,0.462,5.848,1.374c1.765,0.912,3.31,2.245,4.59,3.958c1.268,1.735,2.263,3.818,2.955,6.187
				c0.69,2.424,1.04,5.125,1.04,8.029v27.863h10.076V91.006C762.248,86.62,761.568,82.664,760.229,79.249z"/>
			<path fill="#003E52" d="M452.884,70.129c-1.77-2.184-4.021-3.885-6.692-5.056c-2.638-1.164-5.667-1.753-9.007-1.753
				c-3.034,0-6.013,0.64-8.854,1.902c-2.857,1.288-5.402,3.145-7.563,5.516c-2.212,2.381-4.006,5.321-5.331,8.739
				c-1.332,3.42-2.007,7.341-2.007,11.656c0,4.323,0.658,8.224,1.955,11.591c1.3,3.404,3.113,6.315,5.39,8.654
				c2.276,2.351,4.99,4.189,8.067,5.465c3.102,1.267,6.448,1.909,9.948,1.909c3.578,0,6.836-0.554,9.685-1.646
				c2.771-1.074,5.345-2.345,7.649-3.78l0.397-0.248l-3.57-6.65l-0.453,0.286c-1.862,1.174-3.802,2.122-5.926,2.896
				c-2.049,0.722-4.309,1.088-6.717,1.088c-4.8,0-8.75-1.6-11.74-4.754c-2.905-3.063-4.587-7.269-5.002-12.505h34.87l0.071-0.415
				c0.222-1.271,0.329-2.864,0.329-4.869c0-3.714-0.473-7.139-1.404-10.181C456.058,74.972,454.679,72.332,452.884,70.129z
				 M449.703,86.695h-26.676c0.299-2.4,0.842-4.464,1.655-6.296c0.856-1.962,1.953-3.636,3.261-4.977
				c1.304-1.342,2.78-2.383,4.391-3.094c1.584-0.711,3.291-1.072,5.071-1.072c3.871,0,6.916,1.357,9.052,4.034
				C448.543,77.906,449.635,81.741,449.703,86.695z"/>
			<path fill="#003E52" d="M582.635,105.377c-1.531,1.392-3.311,2.604-5.293,3.606c-1.935,0.992-4.134,1.495-6.536,1.495
				c-2.256,0-4.374-0.468-6.294-1.391c-1.949-0.938-3.55-2.217-4.894-3.91c-1.359-1.715-2.428-3.763-3.175-6.086
				c-0.766-2.373-1.153-5.05-1.153-7.959c0-2.88,0.412-5.572,1.228-8.004c0.795-2.427,1.858-4.452,3.252-6.191
				c1.365-1.71,3.03-3.047,4.95-3.971c1.944-0.934,4.005-1.388,6.3-1.388c1.976,0,3.783,0.409,5.369,1.215
				c1.653,0.855,3.254,1.949,4.756,3.251l0.399,0.346l4.985-6.449l-0.341-0.311c-1.832-1.67-4.009-3.15-6.47-4.4
				c-2.514-1.269-5.549-1.912-9.021-1.912c-3.372,0-6.646,0.618-9.735,1.837c-3.079,1.235-5.813,3.072-8.128,5.46
				c-2.314,2.39-4.177,5.335-5.532,8.75c-1.371,3.373-2.066,7.331-2.066,11.765c0,4.325,0.635,8.242,1.886,11.643
				c1.268,3.428,3.024,6.356,5.224,8.705c2.22,2.357,4.883,4.178,7.917,5.414c3.045,1.233,6.338,1.858,9.787,1.858
				c3.172,0,6.273-0.626,9.22-1.861c2.896-1.223,5.578-2.905,7.971-5l0.334-0.292l-4.515-6.607L582.635,105.377z"/>
			<path fill="#003E52" d="M518.929,70.623c-2.252-2.39-4.875-4.228-7.801-5.463c-5.904-2.44-12.725-2.444-18.645,0.001
				c-2.914,1.229-5.539,3.066-7.803,5.462c-2.218,2.354-4.029,5.298-5.385,8.754c-1.327,3.434-2,7.389-2,11.756
				c0,4.308,0.673,8.228,2.001,11.651c1.352,3.454,3.164,6.38,5.387,8.699c2.254,2.357,4.879,4.177,7.802,5.409
				c2.957,1.234,6.093,1.86,9.319,1.86c3.23,0,6.368-0.626,9.327-1.861c2.929-1.237,5.551-3.057,7.795-5.408
				c2.235-2.345,4.045-5.271,5.38-8.697c1.324-3.371,1.996-7.291,1.996-11.652c0-4.421-0.672-8.377-1.996-11.758
				C522.97,75.948,521.162,73.004,518.929,70.623z M501.805,71.578c2.129,0,4.1,0.464,5.857,1.381
				c1.78,0.929,3.313,2.262,4.561,3.966c1.285,1.721,2.286,3.802,2.976,6.188c0.693,2.379,1.045,5.078,1.045,8.02
				c0,2.981-0.342,5.589-1.044,7.972c-0.692,2.357-1.693,4.403-2.977,6.084c-1.241,1.658-2.775,2.973-4.559,3.905
				c-1.777,0.919-3.749,1.385-5.859,1.385c-2.114,0-4.081-0.466-5.847-1.384c-1.806-0.935-3.305-2.213-4.585-3.909
				c-1.266-1.664-2.261-3.71-2.957-6.081c-0.696-2.383-1.05-5.065-1.05-7.972c0-2.909,0.354-5.607,1.051-8.021
				c0.703-2.433,1.672-4.457,2.961-6.19c1.282-1.736,2.779-3.033,4.582-3.964C497.707,72.042,499.673,71.578,501.805,71.578z"/>
			<path fill="#003E52" d="M647.962,70.623c-2.254-2.392-4.88-4.229-7.807-5.463c-2.948-1.221-6.077-1.839-9.301-1.839
				c-3.253,0-6.393,0.619-9.333,1.84c-2.918,1.229-5.544,3.066-7.808,5.463c-2.231,2.378-4.04,5.323-5.379,8.753
				c-1.32,3.414-1.99,7.37-1.99,11.756c0,4.327,0.67,8.247,1.991,11.651c1.335,3.429,3.146,6.355,5.381,8.699
				c2.254,2.357,4.88,4.177,7.806,5.408c2.941,1.234,6.081,1.86,9.332,1.86c3.222,0,6.352-0.626,9.304-1.86
				c2.932-1.236,5.557-3.055,7.801-5.408c2.22-2.322,4.03-5.249,5.381-8.699c1.332-3.403,2.007-7.323,2.007-11.651
				c0-4.388-0.675-8.344-2.007-11.759C651.988,75.925,650.178,72.98,647.962,70.623z M630.855,110.479
				c-2.113,0-4.088-0.466-5.868-1.384c-1.8-0.938-3.333-2.251-4.563-3.911c-1.287-1.684-2.262-3.674-2.979-6.08
				c-0.695-2.378-1.033-4.986-1.033-7.972c0-2.947,0.348-5.646,1.033-8.019c0.716-2.436,1.691-4.461,2.986-6.195
				c1.229-1.695,2.763-3.027,4.556-3.959c1.764-0.917,3.738-1.381,5.869-1.381c2.109,0,4.071,0.464,5.831,1.382
				c1.79,0.922,3.33,2.255,4.581,3.965c1.279,1.713,2.251,3.737,2.97,6.185c0.687,2.413,1.034,5.112,1.034,8.023
				c0,2.909-0.348,5.592-1.033,7.97c-0.722,2.423-1.692,4.413-2.971,6.086c-1.245,1.664-2.786,2.978-4.581,3.905
				C634.909,110.013,632.947,110.479,630.855,110.479z"/>
		</g>
		<g>
			<path fill="#003E52" d="M364.729,168.287c-1.251,0.626-3.749,1.252-6.945,1.252c-7.418,0-13.005-4.68-13.005-13.31
				c0-8.23,5.587-13.817,13.744-13.817c3.275,0,5.344,0.699,6.24,1.173l-0.817,2.773c-1.285-0.632-3.123-1.094-5.311-1.094
				c-6.167,0-10.266,3.94-10.266,10.846c0,6.438,3.709,10.582,10.114,10.582c2.069,0,4.177-0.435,5.542-1.094L364.729,168.287z"/>
			<path fill="#003E52" d="M385.546,159.549c0,6.984-4.847,10.028-9.413,10.028c-5.113,0-9.054-3.749-9.054-9.719
				c0-6.319,4.138-10.028,9.37-10.028C381.873,149.831,385.546,153.771,385.546,159.549z M370.553,159.741
				c0,4.138,2.385,7.261,5.739,7.261c3.281,0,5.739-3.078,5.739-7.34c0-3.202-1.601-7.255-5.66-7.255
				C372.312,152.407,370.553,156.15,370.553,159.741z"/>
			<path fill="#003E52" d="M389.887,155.366c0-1.95-0.045-3.546-0.157-5.107h3.044l0.197,3.123h0.079
				c0.936-1.792,3.117-3.551,6.246-3.551c2.615,0,6.669,1.556,6.669,8.033v11.28h-3.434v-10.886c0-3.05-1.127-5.581-4.369-5.581
				c-2.26,0-4.024,1.601-4.611,3.512c-0.157,0.429-0.23,1.015-0.23,1.596v11.359h-3.434V155.366z"/>
			<path fill="#003E52" d="M411.095,165.631c1.015,0.666,2.808,1.37,4.526,1.37c2.497,0,3.665-1.251,3.665-2.808
				c0-1.646-0.971-2.542-3.507-3.473c-3.405-1.212-5-3.083-5-5.355c0-3.038,2.457-5.535,6.522-5.535
				c1.905,0,3.591,0.547,4.645,1.166l-0.856,2.498c-0.744-0.468-2.114-1.088-3.867-1.088c-2.035,0-3.169,1.167-3.169,2.57
				c0,1.562,1.134,2.267,3.597,3.208c3.281,1.245,4.956,2.886,4.956,5.693c0,3.32-2.577,5.66-7.064,5.66
				c-2.068,0-3.985-0.508-5.31-1.297L411.095,165.631z"/>
			<path fill="#003E52" d="M428.937,160.327c0.079,4.646,3.044,6.557,6.483,6.557c2.458,0,3.94-0.429,5.226-0.976l0.586,2.458
				c-1.212,0.547-3.275,1.173-6.285,1.173c-5.818,0-9.285-3.828-9.285-9.521c0-5.699,3.354-10.187,8.856-10.187
				c6.167,0,7.808,5.417,7.808,8.901c0,0.698-0.079,1.245-0.112,1.595H428.937z M439.011,157.864
				c0.039-2.182-0.902-5.576-4.764-5.576c-3.479,0-4.994,3.197-5.271,5.576H439.011z"/>
			<path fill="#003E52" d="M450.416,144.948c0.039,1.173-0.817,2.109-2.188,2.109c-1.212,0-2.068-0.937-2.068-2.109
				c0-1.206,0.901-2.142,2.147-2.142C449.598,142.806,450.416,143.742,450.416,144.948z M446.587,169.144v-18.886h3.434v18.886
				H446.587z"/>
			<path fill="#003E52" d="M455.726,141.436h3.438v27.708h-3.438V141.436z"/>
			<path fill="#003E52" d="M489.815,169.144c-0.744-0.739-1.449-1.483-2.458-2.571c-2.271,2.104-4.803,3.005-7.689,3.005
				c-5.119,0-8.084-3.438-8.084-7.379c0-3.591,2.148-6.049,5.152-7.684v-0.119c-1.364-1.719-2.188-3.63-2.188-5.502
				c0-3.207,2.307-6.482,6.675-6.482c3.281,0,5.818,2.188,5.818,5.587c0,2.768-1.602,4.949-5.773,7.018v0.119
				c2.222,2.576,4.719,5.468,6.398,7.334c1.207-1.832,2.03-4.363,2.537-7.684h3.123c-0.704,4.138-1.838,7.413-3.788,9.719
				c1.403,1.482,2.768,2.965,4.335,4.64H489.815z M485.677,164.623c-1.562-1.72-4.487-4.921-7.419-8.275
				c-1.403,0.896-3.394,2.576-3.394,5.344c0,3.011,2.227,5.311,5.384,5.311C482.514,167.001,484.425,165.987,485.677,164.623z
				 M477.671,148.579c0,1.872,0.863,3.32,1.996,4.725c2.649-1.517,4.369-2.926,4.369-5.153c0-1.601-0.902-3.399-3.044-3.399
				C478.799,144.75,477.671,146.549,477.671,148.579z"/>
			<path fill="#003E52" d="M523.633,168.287c-1.258,0.626-3.749,1.252-6.951,1.252c-7.419,0-13-4.68-13-13.31
				c0-8.23,5.581-13.817,13.744-13.817c3.275,0,5.345,0.699,6.246,1.173l-0.823,2.773c-1.291-0.632-3.123-1.094-5.305-1.094
				c-6.173,0-10.271,3.94-10.271,10.846c0,6.438,3.71,10.582,10.114,10.582c2.063,0,4.171-0.435,5.541-1.094L523.633,168.287z"/>
			<path fill="#003E52" d="M544.446,159.549c0,6.984-4.837,10.028-9.408,10.028c-5.113,0-9.054-3.749-9.054-9.719
				c0-6.319,4.138-10.028,9.363-10.028C540.776,149.831,544.446,153.771,544.446,159.549z M529.457,159.741
				c0,4.138,2.379,7.261,5.738,7.261c3.275,0,5.739-3.078,5.739-7.34c0-3.202-1.601-7.255-5.66-7.255
				C531.215,152.407,529.457,156.15,529.457,159.741z"/>
			<path fill="#003E52" d="M548.792,155.366c0-1.95-0.039-3.546-0.158-5.107h3.005l0.158,3.045h0.118
				c1.054-1.793,2.808-3.473,5.936-3.473c2.571,0,4.521,1.556,5.339,3.782h0.079c0.586-1.054,1.33-1.872,2.108-2.458
				c1.133-0.856,2.379-1.324,4.177-1.324c2.498,0,6.207,1.635,6.207,8.196v11.117h-3.354v-10.688c0-3.631-1.33-5.818-4.104-5.818
				c-1.95,0-3.473,1.449-4.059,3.123c-0.158,0.469-0.266,1.094-0.266,1.72v11.664h-3.365V157.83c0-3.005-1.325-5.192-3.935-5.192
				c-2.153,0-3.71,1.72-4.256,3.434c-0.198,0.508-0.276,1.094-0.276,1.68v11.394h-3.354V155.366z"/>
			<path fill="#003E52" d="M581.359,155.366c0-1.95-0.039-3.546-0.157-5.107h3.005l0.157,3.045h0.113
				c1.06-1.793,2.813-3.473,5.941-3.473c2.576,0,4.526,1.556,5.35,3.782h0.073c0.587-1.054,1.325-1.872,2.108-2.458
				c1.134-0.856,2.379-1.324,4.178-1.324c2.497,0,6.206,1.635,6.206,8.196v11.117h-3.359v-10.688c0-3.631-1.33-5.818-4.099-5.818
				c-1.95,0-3.478,1.449-4.059,3.123c-0.158,0.469-0.271,1.094-0.271,1.72v11.664h-3.365V157.83c0-3.005-1.319-5.192-3.936-5.192
				c-2.153,0-3.709,1.72-4.256,3.434c-0.197,0.508-0.276,1.094-0.276,1.68v11.394h-3.354V155.366z"/>
			<path fill="#003E52" d="M629.733,163.997c0,1.956,0.04,3.664,0.158,5.147h-3.044l-0.192-3.078h-0.079
				c-0.896,1.517-2.892,3.512-6.246,3.512c-2.971,0-6.521-1.641-6.521-8.275v-11.044h3.444v10.463c0,3.586,1.088,6.004,4.211,6.004
				c2.3,0,3.901-1.601,4.521-3.117c0.203-0.508,0.316-1.139,0.316-1.759v-11.591h3.433V163.997z"/>
			<path fill="#003E52" d="M635.444,155.366c0-1.95-0.034-3.546-0.152-5.107h3.044l0.197,3.123h0.079
				c0.931-1.792,3.117-3.551,6.246-3.551c2.61,0,6.669,1.556,6.669,8.033v11.28h-3.433v-10.886c0-3.05-1.134-5.581-4.375-5.581
				c-2.267,0-4.024,1.601-4.605,3.512c-0.158,0.429-0.237,1.015-0.237,1.596v11.359h-3.433V155.366z"/>
			<path fill="#003E52" d="M660.947,144.948c0.04,1.173-0.817,2.109-2.182,2.109c-1.212,0-2.074-0.937-2.074-2.109
				c0-1.206,0.902-2.142,2.147-2.142C660.129,142.806,660.947,143.742,660.947,144.948z M657.12,169.144v-18.886h3.438v18.886
				H657.12z"/>
			<path fill="#003E52" d="M679.725,168.445c-0.902,0.468-2.887,1.094-5.423,1.094c-5.699,0-9.409-3.862-9.409-9.64
				c0-5.813,3.985-10.035,10.153-10.035c2.023,0,3.821,0.514,4.752,0.981l-0.778,2.649c-0.817-0.468-2.108-0.902-3.974-0.902
				c-4.336,0-6.681,3.208-6.681,7.148c0,4.374,2.813,7.063,6.562,7.063c1.945,0,3.236-0.507,4.211-0.931L679.725,168.445z"/>
			<path fill="#003E52" d="M694.212,169.144l-0.271-2.374h-0.112c-1.06,1.472-3.084,2.808-5.784,2.808
				c-3.822,0-5.772-2.694-5.772-5.429c0-4.561,4.059-7.058,11.359-7.019v-0.395c0-1.562-0.435-4.369-4.296-4.369
				c-1.753,0-3.591,0.542-4.916,1.404l-0.783-2.261c1.562-1.021,3.828-1.68,6.207-1.68c5.772,0,7.182,3.94,7.182,7.729v7.063
				c0,1.635,0.079,3.235,0.315,4.521H694.212z M693.706,159.509c-3.743-0.079-7.999,0.587-7.999,4.257
				c0,2.221,1.482,3.274,3.235,3.274c2.458,0,4.025-1.562,4.572-3.162c0.118-0.35,0.191-0.744,0.191-1.094V159.509z"/>
			<path fill="#003E52" d="M706.558,144.83v5.429h4.916v2.61h-4.916v10.187c0,2.346,0.666,3.67,2.577,3.67
				c0.896,0,1.556-0.112,1.989-0.23l0.158,2.576c-0.665,0.271-1.72,0.468-3.044,0.468c-1.602,0-2.887-0.508-3.71-1.443
				c-0.975-1.015-1.33-2.694-1.33-4.916v-10.311h-2.926v-2.61h2.926v-4.532L706.558,144.83z"/>
			<path fill="#003E52" d="M719.169,144.948c0.039,1.173-0.817,2.109-2.182,2.109c-1.212,0-2.069-0.937-2.069-2.109
				c0-1.206,0.896-2.142,2.148-2.142C718.352,142.806,719.169,143.742,719.169,144.948z M715.341,169.144v-18.886h3.444v18.886
				H715.341z"/>
			<path fill="#003E52" d="M741.583,159.549c0,6.984-4.843,10.028-9.409,10.028c-5.112,0-9.059-3.749-9.059-9.719
				c0-6.319,4.138-10.028,9.369-10.028C737.914,149.831,741.583,153.771,741.583,159.549z M726.593,159.741
				c0,4.138,2.385,7.261,5.739,7.261c3.275,0,5.733-3.078,5.733-7.34c0-3.202-1.602-7.255-5.654-7.255
				C728.347,152.407,726.593,156.15,726.593,159.741z"/>
			<path fill="#003E52" d="M745.924,155.366c0-1.95-0.034-3.546-0.158-5.107h3.05l0.191,3.123h0.079
				c0.937-1.792,3.123-3.551,6.241-3.551c2.615,0,6.68,1.556,6.68,8.033v11.28h-3.438v-10.886c0-3.05-1.128-5.581-4.369-5.581
				c-2.267,0-4.02,1.601-4.605,3.512c-0.158,0.429-0.237,1.015-0.237,1.596v11.359h-3.433V155.366z"/>
		</g>
	</g>
</g>
</svg>
