<?xml version="1.0" encoding="utf-8"?>
<!-- Generator: Adobe Illustrator 16.0.3, SVG Export Plug-In . SVG Version: 6.00 Build 0)  -->
<!DOCTYPE svg PUBLIC "-//W3C//DTD SVG 1.1//EN" "http://www.w3.org/Graphics/SVG/1.1/DTD/svg11.dtd">
<svg version="1.1" id="Calque_1" xmlns="http://www.w3.org/2000/svg" xmlns:xlink="http://www.w3.org/1999/xlink" x="0px" y="0px"
	 width="93.342px" height="93.343px" viewBox="0 0 93.342 93.343" enable-background="new 0 0 93.342 93.343" xml:space="preserve">
<g>
	<defs>
		<rect id="SVGID_1_" width="93.342" height="93.343"/>
	</defs>
	<clipPath id="SVGID_2_">
		<use xlink:href="#SVGID_1_"  overflow="visible"/>
	</clipPath>
	<g clip-path="url(#SVGID_2_)">
		<defs>
			<rect id="SVGID_3_" width="93.342" height="93.343"/>
		</defs>
		<clipPath id="SVGID_4_">
			<use xlink:href="#SVGID_3_"  overflow="visible"/>
		</clipPath>
		<path clip-path="url(#SVGID_4_)" fill="#9EE9C5" d="M93.342,46.671c0,25.777-20.897,46.672-46.671,46.672
			C20.894,93.343,0,72.448,0,46.671C0,20.897,20.894,0,46.671,0C72.445,0,93.342,20.897,93.342,46.671"/>
		<g opacity="0.2" clip-path="url(#SVGID_4_)">
			<g>
				<defs>
					<rect id="SVGID_5_" x="36.461" y="63.208" width="20.419" height="18.467"/>
				</defs>
				<clipPath id="SVGID_6_">
					<use xlink:href="#SVGID_5_"  overflow="visible"/>
				</clipPath>
				<path clip-path="url(#SVGID_6_)" fill="#221E20" d="M36.461,63.208v11.517c0,0.701,0.821,1.906,1.43,2.256l7.674,4.433
					c0.606,0.35,1.601,0.35,2.21,0l7.674-4.433c0.607-0.35,1.43-1.555,1.43-2.256V63.208c-3.083,1.539-6.541,2.424-10.209,2.424
					S39.541,64.746,36.461,63.208"/>
			</g>
		</g>
		<path clip-path="url(#SVGID_4_)" fill="#DFDFD0" d="M36.461,60.291v11.517c0,0.701,0.821,1.906,1.43,2.256l7.674,4.433
			c0.606,0.35,1.601,0.35,2.21,0l7.674-4.433c0.607-0.35,1.43-1.555,1.43-2.256V60.291c-3.083,1.538-6.541,2.424-10.209,2.424
			S39.541,61.829,36.461,60.291"/>
		<g opacity="0.2" clip-path="url(#SVGID_4_)">
			<g>
				<defs>
					<rect id="SVGID_7_" x="25.62" y="29.365" width="42.102" height="42.101"/>
				</defs>
				<clipPath id="SVGID_8_">
					<use xlink:href="#SVGID_7_"  overflow="visible"/>
				</clipPath>
				<path clip-path="url(#SVGID_8_)" fill="#221E20" d="M46.671,29.365c-11.625,0-21.051,9.424-21.051,21.053
					c0,11.625,9.426,21.048,21.051,21.048s21.048-9.423,21.048-21.048C67.719,38.789,58.296,29.365,46.671,29.365"/>
			</g>
		</g>
		<path clip-path="url(#SVGID_4_)" fill="#FFFFFF" d="M46.671,25.62c-11.625,0-21.051,9.426-21.051,21.052
			c0,11.627,9.426,21.05,21.051,21.05s21.048-9.423,21.048-21.05C67.719,35.046,58.296,25.62,46.671,25.62"/>
		<g opacity="0.2" clip-path="url(#SVGID_4_)">
			<g>
				<defs>
					<rect id="SVGID_9_" x="44.483" y="17.501" width="4.375" height="7.292"/>
				</defs>
				<clipPath id="SVGID_10_">
					<use xlink:href="#SVGID_9_"  overflow="visible"/>
				</clipPath>
				<path clip-path="url(#SVGID_10_)" fill="#221E20" d="M48.859,22.606c0,1.209-0.98,2.188-2.188,2.188
					c-1.208,0-2.188-0.979-2.188-2.188v-2.917c0-1.208,0.98-2.188,2.188-2.188c1.208,0,2.188,0.98,2.188,2.188V22.606z"/>
			</g>
		</g>
		<g opacity="0.2" clip-path="url(#SVGID_4_)">
			<g>
				<defs>
					<rect id="SVGID_11_" x="71.465" y="47.4" width="7.292" height="4.376"/>
				</defs>
				<clipPath id="SVGID_12_">
					<use xlink:href="#SVGID_11_"  overflow="visible"/>
				</clipPath>
				<path clip-path="url(#SVGID_12_)" fill="#221E20" d="M73.653,51.776c-1.208,0-2.188-0.977-2.188-2.188
					c0-1.208,0.98-2.188,2.188-2.188h2.917c1.208,0,2.188,0.98,2.188,2.188c0,1.21-0.98,2.188-2.188,2.188H73.653z"/>
			</g>
		</g>
		<g opacity="0.2" clip-path="url(#SVGID_4_)">
			<g>
				<defs>
					<rect id="SVGID_13_" x="14.584" y="47.4" width="7.292" height="4.376"/>
				</defs>
				<clipPath id="SVGID_14_">
					<use xlink:href="#SVGID_13_"  overflow="visible"/>
				</clipPath>
				<path clip-path="url(#SVGID_14_)" fill="#221E20" d="M19.689,47.4c1.208,0,2.188,0.98,2.188,2.188
					c0,1.21-0.98,2.188-2.188,2.188h-2.917c-1.208,0-2.188-0.977-2.188-2.188c0-1.208,0.98-2.188,2.188-2.188H19.689z"/>
			</g>
		</g>
		<g opacity="0.2" clip-path="url(#SVGID_4_)">
			<g>
				<defs>
					<rect id="SVGID_15_" x="29.534" y="21.507" width="5.834" height="6.902"/>
				</defs>
				<clipPath id="SVGID_16_">
					<use xlink:href="#SVGID_15_"  overflow="visible"/>
				</clipPath>
				<path clip-path="url(#SVGID_16_)" fill="#221E20" d="M35.074,25.127c0.604,1.045,0.245,2.384-0.8,2.988
					c-1.045,0.604-2.384,0.245-2.988-0.8l-1.458-2.527c-0.604-1.045-0.245-2.384,0.801-2.988s2.384-0.245,2.988,0.8L35.074,25.127z"
					/>
			</g>
		</g>
		<g opacity="0.2" clip-path="url(#SVGID_4_)">
			<g>
				<defs>
					<rect id="SVGID_17_" x="67.85" y="32.451" width="6.902" height="5.833"/>
				</defs>
				<clipPath id="SVGID_18_">
					<use xlink:href="#SVGID_17_"  overflow="visible"/>
				</clipPath>
				<path clip-path="url(#SVGID_18_)" fill="#221E20" d="M71.131,37.991c-1.045,0.604-2.384,0.245-2.988-0.8s-0.245-2.384,0.8-2.988
					l2.527-1.458c1.045-0.604,2.384-0.245,2.988,0.801c0.604,1.045,0.245,2.384-0.8,2.988L71.131,37.991z"/>
			</g>
		</g>
		<g opacity="0.2" clip-path="url(#SVGID_4_)">
			<g>
				<defs>
					<rect id="SVGID_19_" x="18.59" y="60.892" width="6.902" height="5.834"/>
				</defs>
				<clipPath id="SVGID_20_">
					<use xlink:href="#SVGID_19_"  overflow="visible"/>
				</clipPath>
				<path clip-path="url(#SVGID_20_)" fill="#221E20" d="M22.21,61.185c1.045-0.604,2.384-0.245,2.988,0.801
					c0.604,1.045,0.245,2.384-0.8,2.988l-2.527,1.458c-1.045,0.604-2.384,0.245-2.988-0.8c-0.604-1.045-0.245-2.384,0.8-2.988
					L22.21,61.185z"/>
			</g>
		</g>
		<g opacity="0.2" clip-path="url(#SVGID_4_)">
			<g>
				<defs>
					<rect id="SVGID_21_" x="18.59" y="32.451" width="6.902" height="5.833"/>
				</defs>
				<clipPath id="SVGID_22_">
					<use xlink:href="#SVGID_21_"  overflow="visible"/>
				</clipPath>
				<path clip-path="url(#SVGID_22_)" fill="#221E20" d="M24.398,34.203c1.045,0.604,1.404,1.943,0.8,2.988
					c-0.604,1.045-1.942,1.404-2.988,0.8l-2.527-1.458c-1.045-0.604-1.404-1.943-0.8-2.988c0.604-1.045,1.942-1.404,2.988-0.801
					L24.398,34.203z"/>
			</g>
		</g>
		<g opacity="0.2" clip-path="url(#SVGID_4_)">
			<g>
				<defs>
					<rect id="SVGID_23_" x="67.85" y="60.892" width="6.902" height="5.834"/>
				</defs>
				<clipPath id="SVGID_24_">
					<use xlink:href="#SVGID_23_"  overflow="visible"/>
				</clipPath>
				<path clip-path="url(#SVGID_24_)" fill="#221E20" d="M68.944,64.974c-1.045-0.604-1.404-1.942-0.8-2.988
					s1.943-1.404,2.988-0.801l2.527,1.458c1.045,0.604,1.404,1.943,0.8,2.988c-0.604,1.045-1.942,1.404-2.988,0.8L68.944,64.974z"/>
			</g>
		</g>
		<g opacity="0.2" clip-path="url(#SVGID_4_)">
			<g>
				<defs>
					<rect id="SVGID_25_" x="57.974" y="21.507" width="5.834" height="6.902"/>
				</defs>
				<clipPath id="SVGID_26_">
					<use xlink:href="#SVGID_25_"  overflow="visible"/>
				</clipPath>
				<path clip-path="url(#SVGID_26_)" fill="#221E20" d="M62.056,27.315c-0.604,1.045-1.943,1.404-2.988,0.8
					c-1.045-0.604-1.404-1.942-0.8-2.988l1.458-2.527c0.604-1.045,1.942-1.404,2.988-0.8c1.045,0.604,1.404,1.943,0.8,2.988
					L62.056,27.315z"/>
			</g>
		</g>
		<path clip-path="url(#SVGID_4_)" fill="#FFFFFF" d="M46.671,25.62c-11.625,0-21.051,9.426-21.051,21.052
			c0,11.627,9.426,21.05,21.051,21.05s21.048-9.423,21.048-21.05C67.719,35.046,58.296,25.62,46.671,25.62"/>
		<path clip-path="url(#SVGID_4_)" fill="#DFDFD0" d="M48.859,19.689c0,1.208-0.98,2.188-2.188,2.188
			c-1.208,0-2.188-0.98-2.188-2.188v-2.917c0-1.208,0.98-2.188,2.188-2.188c1.208,0,2.188,0.979,2.188,2.188V19.689z"/>
		<path clip-path="url(#SVGID_4_)" fill="#DFDFD0" d="M73.653,48.859c-1.208,0-2.188-0.98-2.188-2.188
			c0-1.208,0.98-2.188,2.188-2.188h2.917c1.208,0,2.188,0.98,2.188,2.188c0,1.208-0.98,2.188-2.188,2.188H73.653z"/>
		<path clip-path="url(#SVGID_4_)" fill="#DFDFD0" d="M19.689,44.483c1.208,0,2.188,0.98,2.188,2.188
			c0,1.208-0.98,2.188-2.188,2.188h-2.917c-1.208,0-2.188-0.98-2.188-2.188c0-1.208,0.98-2.188,2.188-2.188H19.689z"/>
		<path clip-path="url(#SVGID_4_)" fill="#DFDFD0" d="M35.074,22.21c0.604,1.045,0.245,2.384-0.8,2.988
			c-1.045,0.604-2.384,0.245-2.988-0.801l-1.458-2.525c-0.604-1.047-0.245-2.386,0.801-2.99c1.045-0.603,2.384-0.245,2.988,0.802
			L35.074,22.21z"/>
		<path clip-path="url(#SVGID_4_)" fill="#DFDFD0" d="M71.131,35.075c-1.045,0.604-2.384,0.245-2.988-0.801s-0.245-2.384,0.8-2.988
			l2.527-1.458c1.045-0.604,2.384-0.245,2.988,0.8c0.604,1.045,0.245,2.384-0.8,2.988L71.131,35.075z"/>
		<path clip-path="url(#SVGID_4_)" fill="#DFDFD0" d="M22.21,58.269c1.045-0.604,2.384-0.245,2.988,0.8
			c0.604,1.045,0.245,2.384-0.8,2.988l-2.527,1.459c-1.045,0.604-2.384,0.245-2.988-0.801c-0.604-1.045-0.245-2.384,0.8-2.988
			L22.21,58.269z"/>
		<path clip-path="url(#SVGID_4_)" fill="#DFDFD0" d="M24.398,31.286c1.045,0.604,1.404,1.942,0.8,2.988
			c-0.604,1.045-1.942,1.404-2.988,0.801l-2.527-1.458c-1.045-0.604-1.404-1.943-0.8-2.988c0.604-1.045,1.942-1.404,2.988-0.8
			L24.398,31.286z"/>
		<path clip-path="url(#SVGID_4_)" fill="#DFDFD0" d="M68.944,62.057c-1.045-0.604-1.404-1.942-0.8-2.988s1.943-1.404,2.988-0.8
			l2.527,1.458c1.045,0.604,1.404,1.943,0.8,2.988c-0.604,1.045-1.942,1.404-2.988,0.801L68.944,62.057z"/>
		<path clip-path="url(#SVGID_4_)" fill="#DFDFD0" d="M62.056,24.398c-0.604,1.045-1.943,1.404-2.988,0.801
			c-1.045-0.604-1.404-1.943-0.8-2.988l1.458-2.525c0.604-1.047,1.942-1.404,2.988-0.802c1.045,0.604,1.404,1.943,0.8,2.99
			L62.056,24.398z"/>
	</g>
</g>
</svg>
