<?xml version="1.0" encoding="utf-8"?>
<!-- Generator: Adobe Illustrator 16.0.3, SVG Export Plug-In . SVG Version: 6.00 Build 0)  -->
<!DOCTYPE svg PUBLIC "-//W3C//DTD SVG 1.1//EN" "http://www.w3.org/Graphics/SVG/1.1/DTD/svg11.dtd">
<svg version="1.1" id="Calque_1" xmlns="http://www.w3.org/2000/svg" xmlns:xlink="http://www.w3.org/1999/xlink" x="0px" y="0px"
	 width="60px" height="60px" viewBox="0 0 60 60" enable-background="new 0 0 60 60" xml:space="preserve">
<path fill-rule="evenodd" clip-rule="evenodd" d="M0,0h60v16.071H48.798V4.909h-4.785v11.162H32.851v4.688h11.162V32.02h4.785
	V20.759H60V60H0V0z M8.98,35.604c-3.995,0-6.568-0.854-8.98-2.858V9.899c5.018-4.154,10.527-4.847,15.145-4.933h18.603l-4.941,3.987
	h-5.395c2.161,1.873,5.385,5.223,5.385,11.191c0,6.536-3.444,9.633-7.142,12.545c-1.145,1.146-2.464,2.385-2.464,4.332
	c0,1.939,1.319,3,2.286,3.796l3.172,2.469c3.872,3.269,8.931,6.277,8.929,12.374c0,1.635-0.268,2.668-0.783,4.336L27.527,60
	c0.019-0.25,0.018-0.414,0.018-0.891c0-4.514-4.304-6.891-10.998-11.664c-0.701-0.091-1.141-0.091-2.018-0.091
	c-0.795,0-5.549,0.179-9.246,1.417C4.012,49.235,1.817,49.532,0,51.999v-4.631c5.025-2.158,10.193-2.26,13.559-2.487
	c-1.234-1.593-2.641-3.27-2.641-6.005c0-1.502,0.441-2.386,0.881-3.449C10.828,35.514,9.863,35.604,8.98,35.604L8.98,35.604z
	 M2.738,17.409c0,5.915,3.107,14.669,10.68,14.669c2.198,0,4.454-0.561,5.901-2.211c1.651-1.892,2.3-4.382,2.3-5.655
	c0-6.362-3.688-16.256-10.99-16.256c-2.29,0-4.752,1.146-6.163,2.915C2.969,12.727,2.738,15.108,2.738,17.409L2.738,17.409z
	 M2.738,17.409"/>
</svg>
