<?xml version="1.0" encoding="utf-8"?>
<!-- Generator: Adobe Illustrator 16.0.3, SVG Export Plug-In . SVG Version: 6.00 Build 0)  -->
<!DOCTYPE svg PUBLIC "-//W3C//DTD SVG 1.1//EN" "http://www.w3.org/Graphics/SVG/1.1/DTD/svg11.dtd">
<svg version="1.1" id="Calque_1" xmlns="http://www.w3.org/2000/svg" xmlns:xlink="http://www.w3.org/1999/xlink" x="0px" y="0px"
	 width="60px" height="60px" viewBox="0 0 60 60" enable-background="new 0 0 60 60" xml:space="preserve">
<path fill-rule="evenodd" clip-rule="evenodd" d="M0,0h60v60H0V0z M44.205,45.254c0.158-0.025,0.316-0.049,0.475-0.082
	c1.244-0.265,2.264-1.305,2.506-2.557c0.027-0.137,0.047-0.273,0.068-0.41V17.794c-0.021-0.133-0.039-0.268-0.066-0.401
	c-0.266-1.368-1.395-2.429-2.779-2.618c-0.057-0.008-0.113-0.02-0.17-0.03H19.76c-0.146,0.026-0.297,0.047-0.441,0.08
	c-1.352,0.308-2.352,1.396-2.545,2.766c-0.008,0.058-0.02,0.114-0.029,0.171v24.479c0.027,0.154,0.051,0.311,0.086,0.465
	c0.299,1.322,1.426,2.346,2.768,2.52c0.066,0.008,0.131,0.02,0.195,0.029H44.205z M20.045,27.116v0.082c0,4.515,0,9.031,0,13.544
	c0,0.65,0.563,1.209,1.213,1.209c7.158,0,14.318,0,21.479,0c0.654,0,1.215-0.559,1.215-1.212c0-4.51,0-9.019,0-13.529v-0.094h-2.912
	c0.41,1.314,0.537,2.651,0.375,4.014c-0.162,1.363-0.602,2.631-1.316,3.803s-1.643,2.145-2.779,2.918
	c-2.945,2.004-6.822,2.182-9.945,0.428c-1.58-0.887-2.82-2.121-3.686-3.713c-1.289-2.373-1.496-4.866-0.738-7.452
	C21.982,27.116,21.02,27.116,20.045,27.116L20.045,27.116L20.045,27.116z M32,23.817c-3.385-0.002-6.135,2.721-6.184,6.089
	c-0.049,3.459,2.721,6.202,6.041,6.274c3.455,0.073,6.248-2.688,6.32-6.043C38.252,26.675,35.461,23.815,32,23.817L32,23.817
	L32,23.817z M41.27,22.578v-0.005c0.502,0,1.006,0.009,1.508-0.002c0.646-0.017,1.172-0.57,1.172-1.217
	c0.002-0.963,0.002-1.927,0-2.89c0-0.691-0.545-1.241-1.236-1.241c-0.959,0-1.92-0.001-2.881,0
	c-0.689,0.001-1.236,0.552-1.238,1.243c0,0.955-0.002,1.91,0.004,2.865c0.002,0.143,0.027,0.291,0.074,0.426
	c0.172,0.508,0.637,0.82,1.207,0.823C40.344,22.579,40.807,22.578,41.27,22.578L41.27,22.578L41.27,22.578z M41.27,22.578"/>
</svg>
