<?xml version="1.0" encoding="utf-8"?>
<!-- Generator: Adobe Illustrator 16.0.3, SVG Export Plug-In . SVG Version: 6.00 Build 0)  -->
<!DOCTYPE svg PUBLIC "-//W3C//DTD SVG 1.1//EN" "http://www.w3.org/Graphics/SVG/1.1/DTD/svg11.dtd">
<svg version="1.1" id="Calque_1" xmlns="http://www.w3.org/2000/svg" xmlns:xlink="http://www.w3.org/1999/xlink" x="0px" y="0px"
	 width="60px" height="60px" viewBox="0 0 60 60" enable-background="new 0 0 60 60" xml:space="preserve">
<path fill-rule="evenodd" clip-rule="evenodd" d="M0,0h60v60H0V0z M34.167,18.283c-2.619,0.953-4.274,3.411-4.086,6.102l0.063,1.038
	l-1.047-0.127c-3.814-0.487-7.146-2.14-9.975-4.915l-1.383-1.377l-0.356,1.017c-0.755,2.267-0.272,4.661,1.3,6.271
	c0.838,0.89,0.648,1.017-0.797,0.487c-0.503-0.169-0.943-0.297-0.984-0.233c-0.146,0.148,0.355,2.076,0.754,2.839
	c0.545,1.06,1.655,2.097,2.871,2.712l1.026,0.486l-1.216,0.021c-1.173,0-1.215,0.021-1.089,0.467
	c0.419,1.377,2.074,2.838,3.919,3.475l1.299,0.444l-1.132,0.679c-1.677,0.974-3.646,1.524-5.616,1.566
	C16.775,39.256,16,39.341,16,39.405c0,0.212,2.556,1.398,4.044,1.864c4.463,1.378,9.765,0.784,13.746-1.567
	c2.828-1.674,5.658-5,6.978-8.221c0.712-1.715,1.425-4.851,1.425-6.355c0-0.975,0.063-1.102,1.236-2.267
	c0.691-0.678,1.342-1.419,1.467-1.631c0.209-0.403,0.189-0.403-0.88-0.042c-1.781,0.636-2.032,0.551-1.152-0.402
	c0.649-0.678,1.425-1.907,1.425-2.267c0-0.063-0.314,0.042-0.67,0.233c-0.378,0.211-1.216,0.53-1.845,0.72l-1.132,0.36l-1.026-0.699
	c-0.565-0.381-1.362-0.806-1.781-0.933C36.766,17.902,35.131,17.944,34.167,18.283L34.167,18.283z M34.167,18.283"/>
</svg>
